<svg xmlns="http://www.w3.org/2000/svg" width="838.75" height="290.27" viewBox="0 0 838.75 290.27">
  <g id="output-onlinepngtools" transform="translate(-71 433.725)">
    <path id="Path_73" data-name="Path 73" d="M190.447-431.841c-31.354,6.009-56.7,19.555-78.548,41.841-14.42,14.748-28.185,37.362-33.538,54.841-1.311,4.151-2.622,8.521-2.95,9.5-.437,1.639.109,1.966,3.605,1.966h4.261l2.513-7.975c10.16-31.681,35.942-61.833,66.64-77.674,34.849-17.916,74.069-20.538,110.666-7.21,45.337,16.5,79.422,57.136,87.724,104.22,2.076,12.236,2.076,34.74,0,46.866a136.571,136.571,0,0,1-25.782,59.32c-4.042,5.244-4.151,5.79-3.059,9.286a21.2,21.2,0,0,0,2.076,4.588c1.092,1.2,11.034-11.471,17.479-22.286,15.294-25.345,22.832-58.665,19.773-87.069-3.933-36.816-18.353-66.858-44.026-91.548-20.32-19.446-42.606-31.463-70.245-37.8C232.616-434.244,204.976-434.681,190.447-431.841Z" transform="translate(0.396)" fill="#496c8c"/>
    <path id="Path_74" data-name="Path 74" d="M200.251-421.952c-32.009,4.042-57.572,16.387-79.968,38.782-11.471,11.471-19.992,23.269-26,36.051-4.7,9.941-8.74,21.194-7.975,21.958.328.328,7.866,1.092,16.824,1.639,8.849.546,19.118,1.311,22.832,1.639l6.555.546,4.261,9.4,4.261,9.5,2.076-8.74c5.681-23.925,20.647-83.573,22.177-88.38,3.168-9.614,7.1-11.8,11.252-6.336,2.4,3.277,34.74,100.4,49.488,148.574.765,2.622,1.639,4.7,2.076,4.7.328,0,6.446-23.269,13.546-51.673,13.328-53.421,14.42-56.48,19.664-56.48,5.681,0,6.992,3.387,36.16,91l21.412,64.237,5.9-8.3c15.622-22.614,23.379-47.522,23.379-75.38,0-36.488-12.782-67.842-38.236-93.514a132.245,132.245,0,0,0-69.7-37.471C228.874-422.389,210.083-423.154,200.251-421.952Z" transform="translate(1.407 1.036)" fill="#496c8c"/>
    <path id="Path_75" data-name="Path 75" d="M173.9-334.958c-1.311,4.7-10.16,41.841-15.294,63.472-4.479,19.337-7.647,25.345-13,25.345-3.168,0-7.538-4.479-10.706-11.034-1.311-2.622-6.445-14.2-11.471-25.563-4.916-11.471-9.286-21.084-9.614-21.412-.328-.437-7.756-.983-16.387-1.42L81.7-306.226l.655,15.622c1.2,34.085,13.546,61.833,38.891,87.178,19.664,19.555,40.639,30.807,67.842,36.707,12.891,2.622,39.656,2.622,52.438-.109,11.034-2.4,25.454-7.319,34.3-11.8,9.5-4.807,21.3-12.891,20.866-14.42-.546-1.529-14.42-45.009-24.143-75.817-4.042-12.673-7.756-22.832-8.084-22.4-.437.546-2.076,6.773-3.714,13.983-1.748,7.21-5.244,22.177-7.866,33.32l-8.74,37.144c-4.37,19.009-6.773,25.454-10.16,27.2-3.5,1.966-6.118-.109-8.63-6.664-2.622-6.664-12.345-36.816-42.824-131.75C178.819-329.5,175.542-339,175.324-339S174.45-337.143,173.9-334.958Z" transform="translate(0.989 8.758)" fill="#496c8c"/>
    <path id="Path_76" data-name="Path 76" d="M639.537-320.263l-5.662,1.49V-299.7h-6.11c-5.812,0-5.961.149-5.513,4.774.447,4.47.895,4.917,6.11,5.365l5.513.447v26.971c0,29.8,1.192,35.168,9.09,39.192,3.874,2.086,20.713,3.129,22.507,1.49a11.24,11.24,0,0,0,0-5.216c-.6-4.024-1.192-4.47-6.109-4.47-10.878-.149-11.322-1.192-11.772-31.294l-.447-26.823h21.006v-10.431H646.987l.6-11.176c.3-6.854-.149-11.176-1.044-11.027C645.8-321.751,642.517-321.005,639.537-320.263Z" transform="translate(158.099 -24.17) rotate(-0.5)" fill="#496c8c"/>
    <path id="Path_77" data-name="Path 77" d="M385.97-310.817c-17.881,5.812-27.27,19.669-27.27,40.384,0,14.007,3.428,22.353,12.07,30.1,19.369,17.435,50.367,10.133,60.5-14.306,3.129-7.6,3.129-26.971,0-34.423-6.11-14.6-16.1-21.757-31.591-22.507C394.165-311.859,388.056-311.562,385.97-310.817Zm22.054,12.068c9.835,5.961,14.752,24.29,10.58,39.192-4.917,17.881-25.482,24.438-37.85,12.07-10.282-10.133-11.474-32.486-2.384-45.15C384.778-301.429,398.785-304.409,408.024-298.75Z" transform="translate(28.982 -21.332) rotate(-0.5)" fill="#496c8c"/>
    <path id="Path_78" data-name="Path 78" d="M447.034-308.022a32.273,32.273,0,0,0-8.345,6.706c-4.024,5.066-4.774,4.774-4.774-2.236v-5.961H422v77.49h13.411v-25.034c0-30.25,1.637-35.465,12.518-40.681,6.11-3.129,7-3.129,12.368-1.192,9.685,3.725,10.878,7.9,10.878,40.384v28.015h13.114l.6-28.015c.447-24.438.745-28.313,3.274-32.039,7.749-11.474,23.693-11.176,29.506.447,2.236,4.47,2.682,9.537,2.682,32.336v27.27h13.56l-.447-30.25c-.447-27.717-.745-30.555-3.725-36.211a27.186,27.186,0,0,0-17.287-13.114c-7.45-1.788-19.67,2.832-25.034,9.387l-4.917,5.662-3.124-4.621a24.5,24.5,0,0,0-32.337-8.342Z" transform="translate(60.007 -20.284) rotate(-0.5)" fill="#496c8c"/>
    <path id="Path_79" data-name="Path 79" d="M537.752-308.887c-12.219,3.428-19.37,9.537-24.737,21.608-4.62,10.431-4.47,28.759.149,38.6,7.9,16.839,27.717,23.842,51.411,18.329,4.173-.893,7.45-2.533,7.3-3.577a46.482,46.482,0,0,1-.3-5.513c-.3-3.577-.6-3.725-3.576-1.937-1.937,1.044-8.941,1.788-16.392,1.937-12.219,0-13.114-.3-18.627-4.62a26.24,26.24,0,0,1-10.431-17.883l-.895-5.216,27.717.447,27.717.447.745-3.725c.745-4.024-.895-14.752-3.274-21.006-2.086-5.216-8.793-12.958-13.71-15.5C555.635-309.184,543.564-310.376,537.752-308.887Zm17.136,11.322c4.917,2.533,8.048,7.749,9.537,15.944l1.044,5.662H544.608c-11.623,0-21.16-.6-21.757-1.49-2.236-3.577,7.153-18.329,13.411-20.862,4.769-2.083,14.007-1.635,18.626.749Z" transform="translate(102.947 -18.993) rotate(-0.5)" fill="#496c8c"/>
    <path id="Path_80" data-name="Path 80" d="M71-299.6c0,60.741,39.875,116.456,97.884,136.885,20.429,7.1,49.27,9.723,70.464,6.118a150.223,150.223,0,0,0,55.825-21.084c6.555-4.151,7.1-5.353,4.916-10.269l-1.311-2.95-10.16,6.446c-12.126,7.647-28.95,14.42-43.7,17.7-14.2,3.168-41.076,3.5-54.841.546C135.677-177.679,94.815-217.117,82.47-270.1c-2.185-9.5-4.151-30.7-3.277-35.177L79.849-309H71Z" transform="translate(0 11.532)" fill="#496c8c"/>
    <path id="Path_81" data-name="Path 81" d="M595.46-306.636a38.567,38.567,0,0,0-9.983,6.854l-4.917,4.774v-12.518H568.637v33.082c0,18.329-.447,35.764-.895,38.739l-1.042,5.668h13.411L581-240.171c.6-5.513,1.044-16.988,1.044-25.63,0-19.521,2.086-24.438,12.667-29.654,6.706-3.428,7.45-3.577,13.114-1.49,11.322,4.024,12.219,6.557,12.667,39.489l.447,28.91h13.263v-28.015c0-15.348-.745-30.4-1.637-33.528C628.393-305.3,610.661-313.193,595.46-306.636Z" transform="translate(130.92 -18.217) rotate(-0.5)" fill="#496c8c"/>
    <path id="Path_82" data-name="Path 82" d="M678.948-302.678c-17.881,10.282-24.737,34.423-15.5,55.285,4.024,8.941,8.048,13.114,16.988,17.285a38.466,38.466,0,0,0,41.576-5.513c17.285-15.2,18.031-47.834,1.341-62.438C715.9-304.617,709.049-307,696.979-307,688.038-307,685.2-306.255,678.948-302.678Zm25.63,6.258c15.051,5.662,21.608,27.717,13.263,45.45-4.917,10.431-11.623,14.6-22.65,13.71-13.71-1.192-21.458-11.623-21.458-28.759,0-22.2,14.6-36.659,30.847-30.4Z" transform="translate(176.317 -16.41) rotate(-0.5)" fill="#496c8c"/>
    <path id="Path_83" data-name="Path 83" d="M397.859-229.609c-.447,14.007-.149,16.392,1.937,16.392,1.341,0,2.236-1.341,2.384-3.428,0-1.788.149-8.048.3-13.71l.3-10.431,6.411,13.411,6.411,13.411,6.854-13.411,7-13.411-.447,13.859c-.3,12.219,0,13.71,2.384,13.71,2.236,0,2.533-1.788,2.533-15.5,0-15.051-.149-15.647-3.274-16.1-2.832-.3-4.173,1.043-7.3,7.749-7.3,15.051-7.45,15.051-13.263,2.384C405.916-243.619,404.277-246,401.6-246,398.455-246,398.306-245.4,397.859-229.609Z" transform="translate(47.725 11.034) rotate(-0.5)" fill="#496c8c"/>
    <path id="Path_84" data-name="Path 84" d="M543.434-240.777c-6.109,4.024-8.941,12.219-6.557,18.627,3.274,9.537,17.881,13.71,28.76,8.2,4.321-2.236,5.066-3.274,5.216-8.2l.149-5.513h-7c-5.365,0-7.153.6-7.153,2.236,0,1.49,1.49,2.236,5.066,2.236,4.321,0,4.917.447,4.321,2.98-.893,3.428-4.024,4.62-12.667,4.774-11.623.149-17.136-11.922-9.537-20.713,2.98-3.428,4.774-4.173,10.431-4.024,4.47.149,7.9,1.192,9.985,2.98,2.533,2.236,3.274,2.384,4.321.6,1.937-3.129-3.725-6.411-12.518-7.153C550.139-244.2,547.606-243.607,543.434-240.777Z" transform="translate(115.531 13.272) rotate(-0.5)" fill="#496c8c"/>
    <path id="Path_85" data-name="Path 85" d="M433-228.738v13.411l13.411.447c9.983.3,13.411,0,13.411-1.49,0-1.192-3.274-1.788-11.176-1.788H437.471V-227.4l8.2.6c6.557.3,8.2,0,8.2-1.788s-1.637-2.086-8.2-1.788l-8.2.6v-9.537l11.176.6c8.2.3,11.176,0,11.176-1.49,0-1.341-3.725-1.788-13.411-1.788H433Z" transform="translate(65.028 13.261) rotate(-0.5)" fill="#496c8c"/>
    <path id="Path_86" data-name="Path 86" d="M459.947-227.439l-.447,13.56,10.282-.6c8.941-.447,10.58-1.043,13.71-4.62,3.874-4.62,4.47-9.239,1.937-14.9-2.236-4.917-7.3-7-16.988-7h-8.048Zm19.968-8.048c1.637,1.49,2.682,4.47,2.682,8.048,0,7-4.024,10.282-12.958,10.282h-6.411v-20.862h7c4.319,0,7.9.893,9.683,2.533Z" transform="translate(78.011 13.986) rotate(-0.5)" fill="#496c8c"/>
    <path id="Path_87" data-name="Path 87" d="M487-227.589c0,7.3.6,13.411,1.341,13.411s1.637-6.11,1.937-13.411c.3-9.983,0-13.411-1.341-13.411C487.447-241,487-237.275,487-227.589Z" transform="translate(91.493 14.121) rotate(-0.5)" fill="#496c8c"/>
    <path id="Path_88" data-name="Path 88" d="M506.772-236.227c-1.043,2.682-3.725,8.791-5.961,13.411-2.832,6.11-3.428,8.643-2.086,8.643,1.044,0,2.384-1.637,2.832-3.725.893-3.428,1.637-3.725,9.685-3.725s8.791.3,9.685,3.725c.6,2.086,1.937,3.725,3.129,3.725,1.637,0,.745-2.832-3.129-11.623-2.98-6.258-5.514-12.368-5.514-13.411,0-.893-1.49-1.788-3.274-1.788C509.753-241,508.262-239.512,506.772-236.227Zm8.048,4.173a60.263,60.263,0,0,1,2.533,6.706c0,.447-2.682.745-6.109.745-5.216,0-5.961-.447-5.066-2.682.6-1.341,1.788-4.321,2.533-6.706,1.936-5.373,2.979-5.073,6.108,1.931Z" transform="translate(96.904 14.321) rotate(-0.5)" fill="#496c8c"/>
    <path id="Path_89" data-name="Path 89" d="M569.5-226.589c0,9.685.447,13.411,1.937,13.411,1.044,0,1.788-2.236,1.788-5.961,0-5.662.149-5.961,4.917-5.961,4.024,0,5.365,1.044,8.494,5.961,2.086,3.274,4.62,5.961,5.662,5.961,1.192,0,.6-1.937-1.788-5.513l-3.725-5.513,3.274-1.49c4.024-2.086,5.066-8.643,1.788-11.922C590.059-239.4,586.631-240,579.478-240H569.5Zm19.82-9.09a4.012,4.012,0,0,1,1.491,4.024c-.447,2.384-2.086,2.98-9.09,3.274l-8.494.447v-4.62c0-4.321.149-4.47,7.153-4.47C584.252-237.02,588.276-236.424,589.32-235.679Z" transform="translate(131.926 15.422) rotate(-0.5)" fill="#496c8c"/>
    <path id="Path_90" data-name="Path 90" d="M603.285-238.416c-12.958,5.216-13.411,21.006-.745,25.184,12.07,4.024,22.65-2.98,21.16-13.71-.893-6.258-3.428-9.387-9.239-11.623C609.692-240.353,608.2-240.353,603.285-238.416Zm14.6,6.706c4.321,4.774,4.173,8.791-.447,13.263-7.45,7.6-20.117,2.98-20.117-7.3C597.325-236.478,610.14-240.2,617.889-231.711Z" transform="translate(143.585 15.712) rotate(-0.5)" fill="#496c8c"/>
    <path id="Path_91" data-name="Path 91" d="M622-228.867c0,12.958,1.637,15.348,11.623,16.392,12.219,1.043,14.9-1.49,15.5-15.348.3-8.2,0-11.176-1.341-11.176s-1.937,2.98-1.937,10.133c0,5.961-.745,10.878-1.788,11.922-2.682,2.682-14.007,2.236-16.839-.745-2.086-2.086-2.384-4.173-1.637-11.922.745-7.9.6-9.387-1.341-9.387C622.447-239,622-236.915,622-228.867Z" transform="translate(157.653 16.384) rotate(-0.5)" fill="#496c8c"/>
    <path id="Path_92" data-name="Path 92" d="M651-225.59c0,8.048.6,13.56,1.49,13.56s1.49-2.682,1.49-5.961v-5.961h8.643c4.774,0,9.389-.745,10.431-1.788,1.937-1.937,2.384-9.537.6-10.73a73.762,73.762,0,0,0-11.922-1.637L651-239.3Zm19.37-8.048c3.577,4.321.6,6.706-8.2,6.706-7.6,0-8.2-.3-8.2-3.428,0-1.937.447-4.024,1.044-4.47,1.94-1.937,13.414-1.042,15.348,1.192Z" transform="translate(171.868 16.474) rotate(-0.5)" fill="#496c8c"/>
  </g>
</svg>
