<svg xmlns="http://www.w3.org/2000/svg" xmlns:xlink="http://www.w3.org/1999/xlink" width="997.988" height="950.226" viewBox="0 0 997.988 950.226">
  <defs>
    <filter id="Path_4" x="0" y="0" width="960.589" height="742.14" filterUnits="userSpaceOnUse">
      <feOffset dx="-37" dy="35" input="SourceAlpha"/>
      <feGaussianBlur stdDeviation="11" result="blur"/>
      <feFlood flood-opacity="0.22"/>
      <feComposite operator="in" in2="blur"/>
      <feComposite in="SourceGraphic"/>
    </filter>
    <filter id="Path_5" x="23.871" y="114.997" width="960.589" height="742.14" filterUnits="userSpaceOnUse">
      <feOffset dx="-37" dy="35" input="SourceAlpha"/>
      <feGaussianBlur stdDeviation="11" result="blur-2"/>
      <feFlood flood-opacity="0.22"/>
      <feComposite operator="in" in2="blur-2"/>
      <feComposite in="SourceGraphic"/>
    </filter>
    <filter id="Path_6" x="37.399" y="208.086" width="960.589" height="742.14" filterUnits="userSpaceOnUse">
      <feOffset dx="-37" dy="35" input="SourceAlpha"/>
      <feGaussianBlur stdDeviation="11" result="blur-3"/>
      <feFlood flood-opacity="0.22"/>
      <feComposite operator="in" in2="blur-3"/>
      <feComposite in="SourceGraphic"/>
    </filter>
  </defs>
  <g id="Component_1_1" data-name="Component 1 – 1" transform="translate(106.256 34.511)">
    <g transform="matrix(1, 0, 0, 1, -106.26, -34.51)" filter="url(#Path_4)">
      <path id="Path_4-2" data-name="Path 4" d="M-1808.137,1166.922l163.472,8.555c40.868,2.139,52.72,103.734,70.293,138.312s79.693-256.662,106.257-342.216,143.447,387.132,191.262,516.176,85.823-286.606,114.431-382.141,166.741,453.436,166.741,453.436" transform="translate(1914.39 -926.78)" fill="none" stroke="#ff3100" stroke-linecap="round" stroke-width="69"/>
    </g>
    <g transform="matrix(1, 0, 0, 1, -106.26, -34.51)" filter="url(#Path_5)">
      <path id="Path_5-2" data-name="Path 5" d="M-1808.137,1166.922l163.472,8.555c40.868,2.139,52.72,103.734,70.293,138.312s79.693-256.662,106.257-342.216,143.447,387.132,191.262,516.176,85.823-286.606,114.431-382.141,166.741,453.436,166.741,453.436" transform="translate(1938.26 -811.78)" fill="none" stroke="#e6b749" stroke-linecap="round" stroke-width="69"/>
    </g>
    <g transform="matrix(1, 0, 0, 1, -106.26, -34.51)" filter="url(#Path_6)">
      <path id="Path_6-2" data-name="Path 6" d="M-1808.137,1166.922l163.472,8.555c40.868,2.139,52.72,103.734,70.293,138.312s79.693-256.662,106.257-342.216,143.447,387.132,191.262,516.176,85.823-286.606,114.431-382.141,166.741,453.436,166.741,453.436" transform="translate(1951.79 -718.69)" fill="none" stroke="#496c8c" stroke-linecap="round" stroke-width="69"/>
    </g>
  </g>
</svg>
